<?xml version="1.0" encoding="utf-8"?>
<!-- Generator: Adobe Illustrator 22.0.0, SVG Export Plug-In . SVG Version: 6.00 Build 0)  -->
<svg version="1.1"
	 id="svg3476" inkscape:version="0.91 r13725" sodipodi:docname="CSS3.svg" xmlns:cc="http://creativecommons.org/ns#" xmlns:dc="http://purl.org/dc/elements/1.1/" xmlns:inkscape="http://www.inkscape.org/namespaces/inkscape" xmlns:rdf="http://www.w3.org/1999/02/22-rdf-syntax-ns#" xmlns:sodipodi="http://sodipodi.sourceforge.net/DTD/sodipodi-0.dtd" xmlns:svg="http://www.w3.org/2000/svg"
	 xmlns="http://www.w3.org/2000/svg" xmlns:xlink="http://www.w3.org/1999/xlink" x="0px" y="0px" viewBox="0 0 290.2 329.7"
	 style="enable-background:new 0 0 290.2 329.7;" xml:space="preserve">
<style type="text/css">
	.st0{fill:#264DE4;}
	.st1{fill:#2965F1;}
	.st2{fill:#EBEBEB;}
	.st3{fill:#FFFFFF;}
</style>
<g id="layer1" transform="translate(-193.633,-276.3622)" inkscape:groupmode="layer" inkscape:label="Calque 1">
	<g id="g3013" transform="translate(119,276.3622)">
		<polygon id="polygon2989" class="st0" points="364.8,0.5 338.4,296.7 219.5,329.6 101,296.7 74.6,0.5 		"/>
		<polygon id="polygon2991" class="st1" points="315.8,277.8 338.3,24.7 219.7,24.7 219.7,304.4 		"/>
		<polygon id="polygon2993" class="st2" points="135.2,134.6 138.4,170.9 219.7,170.9 219.7,134.6 		"/>
		<polygon id="polygon2995" class="st2" points="219.7,61 219.6,61 128.6,61 131.9,97.4 219.7,97.4 		"/>
		<polygon id="polygon2997" class="st2" points="219.7,266.7 219.7,228.9 219.6,229 179.1,218 176.5,189.1 156.9,189.1 140.1,189.1 
			145.1,246.1 219.6,266.8 		"/>
		<polygon id="polygon3005" class="st3" points="264.3,170.9 260.1,218 219.6,229 219.6,266.7 294.1,246.1 294.6,240 303.2,144.3 
			304,134.6 310.6,61 219.6,61 219.6,97.4 270.8,97.4 267.5,134.6 219.6,134.6 219.6,170.9 		"/>
	</g>
</g>
</svg>
